{"accessors" : [{"bufferView" : 0, "byteOffset" : 0, "componentType" : 5123, "count" : 600, "type" : "SCALAR", "max" : [120], "min" : [0]}, {"bufferView" : 1, "byteOffset" : 0, "componentType" : 5126, "count" : 121, "type" : "VEC3", "max" : [1.909859299659729, 0, 3], "min" : [-1.909859299659729, -0.511745274066925, -3], "name" : "POSITION"}, {"bufferView" : 1, "byteOffset" : 12, "componentType" : 5126, "count" : 121, "type" : "VEC3", "max" : [0.4539925456047058, 1.0000044107437134, 0], "min" : [-0.4539926052093506, 0.8910102844238281, 0], "name" : "NORMAL"}, {"bufferView" : 1, "byteOffset" : 24, "componentType" : 5126, "count" : 121, "type" : "VEC2", "max" : [0.9910460114479065, 0.9917585849761963], "min" : [0.011803001165390015, 0.00824129581451416], "name" : "TEXCOORD_0"}], "asset" : {"generator" : "Aspose.3D 21.3.1", "version" : "2.0"}, "buffers" : [{"uri" : "buffer.bin", "byteLength" : 326248}], "bufferViews" : [{"buffer" : 0, "byteOffset" : 0, "byteLength" : 1200, "target" : 34963}, {"buffer" : 0, "byteOffset" : 1204, "byteLength" : 19200, "byteStride" : 32, "target" : 34962}, {"buffer" : 0, "byteOffset" : 20408, "byteLength" : 305836}], "images" : [{"mimeType" : "image/png", "bufferView" : 2}], "materials" : [{"pbrMetallicRoughness" : {"baseColorFactor" : [1, 1, 1, 1], "baseColorTexture" : {"index" : 0, "texCoord" : 0}, "metallicFactor" : 0, "roughnessFactor" : 1}, "emissiveFactor" : [0, 0, 0], "alphaMode" : "OPAQUE", "doubleSided" : false}], "meshes" : [{"primitives" : [{"attributes" : {"POSITION" : 1, "NORMAL" : 2, "TEXCOORD_0" : 3}, "indices" : 0, "material" : 0, "mode" : 4}]}], "nodes" : [{"matrix" : [1, 0, 0, 0, 0, 2.220446049250313E-16, 1, 0, 0, -0.7558012486965413, 1.6782158966866885E-16, 0, 0, 5.9633802664858155, 0, 1], "mesh" : 0}], "samplers" : [{"magFilter" : 9729, "minFilter" : 9729, "wrapS" : 10497, "wrapT" : 10497}], "scene" : 0, "scenes" : [{"nodes" : [0]}], "textures" : [{"sampler" : 0, "source" : 0}]}